<svg xmlns="http://www.w3.org/2000/svg" width="90" height="32.675" viewBox="0 0 90 32.675">
  <g id="Group_2226" data-name="Group 2226" transform="translate(-28.397 -27.734)">
    <g id="Group_2068" data-name="Group 2068" transform="translate(28.397 27.734)">
      <path id="Path_134292" data-name="Path 134292" d="M88.869,53.794h-1.68v1.617h1.68a.82.82,0,1,0,0-1.617Z" transform="translate(-25.458 -26.224)" fill="none"/>
      <path id="Path_134293" data-name="Path 134293" d="M77.75,53.7a2.017,2.017,0,1,0,1.962,2.026A1.958,1.958,0,0,0,77.75,53.7Z" transform="translate(-25.99 -26.224)" fill="none"/>
      <path id="Path_134294" data-name="Path 134294" d="M36.787,52.676a.618.618,0,0,0-.617.618v3.4l-3.159-3.764a.706.706,0,0,0-1.247.454v4.763a.618.618,0,1,0,1.235,0V54.857l3.158,3.659a.71.71,0,0,0,1.248-.464V53.294A.618.618,0,0,0,36.787,52.676Z" transform="translate(-28.397 -26.224)" fill="#130b0b"/>
      <path id="Path_134295" data-name="Path 134295" d="M46.74,57.646H43.91V56.265h2.557a.55.55,0,0,0,.55-.55h0a.55.55,0,0,0-.55-.55H43.91V53.794h2.811a.559.559,0,0,0,.559-.559h0a.559.559,0,0,0-.559-.559H43.276a.6.6,0,0,0-.6.6V58.16a.6.6,0,0,0,.6.6H46.74A.558.558,0,0,0,47.3,58.2h0A.558.558,0,0,0,46.74,57.646Z" transform="translate(-27.666 -26.224)" fill="#130b0b"/>
      <path id="Path_134296" data-name="Path 134296" d="M56.705,52.676H52.536a.559.559,0,0,0-.559.559h0a.559.559,0,0,0,.559.559H54v4.351a.618.618,0,1,0,1.235,0V53.794h1.467a.559.559,0,0,0,.559-.559h0A.559.559,0,0,0,56.705,52.676Z" transform="translate(-27.179 -26.224)" fill="#130b0b"/>
      <path id="Path_134297" data-name="Path 134297" d="M69.264,52.676a.621.621,0,0,0-.6.455l-1.037,3.742L66.57,53.247a.794.794,0,0,0-1.524,0l-1.059,3.626-1.038-3.745a.616.616,0,1,0-1.186.337l1.358,4.666a.877.877,0,0,0,1.685,0l1.006-3.473,1,3.467a.882.882,0,0,0,1.695,0L69.86,53.47A.62.62,0,0,0,69.264,52.676Z" transform="translate(-26.612 -26.224)" fill="#130b0b"/>
      <path id="Path_134298" data-name="Path 134298" d="M77.75,52.54a3.18,3.18,0,1,0,3.207,3.189A3.174,3.174,0,0,0,77.75,52.54Zm0,5.2a2.017,2.017,0,1,1,1.962-2.007A1.942,1.942,0,0,1,77.75,57.736Z" transform="translate(-25.98 -26.224)" fill="#130b0b"/>
      <path id="Path_134299" data-name="Path 134299" d="M98.608,55.729l1.933-2.108a.564.564,0,0,0-.828-.765l-2.195,2.355h-.209V53.294a.618.618,0,1,0-1.235,0v4.851a.618.618,0,1,0,1.235,0V56.328h.309l2.142,2.251a.59.59,0,1,0,.848-.82Z" transform="translate(-24.927 -26.224)" fill="#130b0b"/>
      <path id="Path_134300" data-name="Path 134300" d="M109.183,55.238l-1.308-.263c-.473-.091-.609-.309-.609-.618,0-.409.373-.754.99-.754a1.2,1.2,0,0,1,1.059.556.581.581,0,0,0,.611.292l.077-.016a.581.581,0,0,0,.387-.871,2.426,2.426,0,0,0-2.107-1.024c-1.426,0-2.316.763-2.316,1.853a1.733,1.733,0,0,0,1.6,1.744l1.29.246c.545.109.708.318.708.663,0,.436-.372.772-1.081.772a1.309,1.309,0,0,1-1.183-.553.692.692,0,0,0-.717-.328.665.665,0,0,0-.43,1.021,2.655,2.655,0,0,0,2.212.941c1.445,0,2.417-.736,2.417-1.917A1.749,1.749,0,0,0,109.183,55.238Z" transform="translate(-24.237 -26.224)" fill="#130b0b"/>
      <path id="Path_134301" data-name="Path 134301" d="M89.589,56.438A1.835,1.835,0,0,0,91.054,54.6a1.951,1.951,0,0,0-2.18-1.926H86.558a.6.6,0,0,0-.6.6v4.868a.618.618,0,1,0,1.236,0V56.528h.979l1.759,1.959a.828.828,0,0,0,.616.275.506.506,0,0,0,.375-.845Zm-2.4-1.027V53.794h1.681a.819.819,0,1,1,0,1.617Z" transform="translate(-25.431 -26.224)" fill="#130b0b"/>
      <path id="Path_134302" data-name="Path 134302" d="M41.333,43.347H33.366l4.462-6.07,4.812-6.548a1.721,1.721,0,0,0-1.316-2.742H30.039a1.61,1.61,0,0,0,0,3.219h7.967l-4.461,6.071-4.813,6.547a1.726,1.726,0,0,0,.369,2.412,1.708,1.708,0,0,0,.947.329H41.333a1.609,1.609,0,1,0,0-3.218" transform="translate(-28.397 -27.734)" fill="#130b0b"/>
      <path id="Path_134303" data-name="Path 134303" d="M112.627,43.348h-7.071V29.47a1.726,1.726,0,0,0-3.452,0V44.841c0,.019.006.038.006.058s-.006.038-.006.058a1.609,1.609,0,0,0,1.61,1.609h8.913a1.609,1.609,0,1,0,0-3.218" transform="translate(-24.237 -27.734)" fill="#130b0b"/>
      <path id="Path_134304" data-name="Path 134304" d="M96.4,43.347H89.219V38.671H94a1.609,1.609,0,0,0,0-3.218H89.219V31.206H96.4a1.61,1.61,0,0,0,0-3.219H87.377a1.609,1.609,0,0,0-1.609,1.61V44.956a1.609,1.609,0,0,0,1.609,1.609H96.4a1.609,1.609,0,1,0,0-3.218" transform="translate(-25.154 -27.734)" fill="#130b0b"/>
      <path id="Path_134305" data-name="Path 134305" d="M76.09,38.475l-2.255,2.681,4.237,5.038a1.725,1.725,0,1,0,2.641-2.22Z" transform="translate(-25.991 -27.023)" fill="#459223"/>
      <path id="Path_134306" data-name="Path 134306" d="M80.713,30.569a1.725,1.725,0,0,0-2.641-2.22l-4.237,5.039,2.255,2.681Z" transform="translate(-25.991 -27.734)" fill="#459223"/>
      <path id="Path_134307" data-name="Path 134307" d="M68.824,29.837a.208.208,0,0,1-.017-.024l-1.231-1.464a1.725,1.725,0,1,0-2.642,2.22l5.636,6.7-5.636,6.7a1.726,1.726,0,0,0,2.642,2.221l1.231-1.465c.006-.008.01-.016.017-.024l6.25-7.434Z" transform="translate(-26.401 -27.734)" fill="#459223"/>
      <path id="Path_134308" data-name="Path 134308" d="M60.95,28.028a1.724,1.724,0,0,0-2.394.469l-3.162,4.7-1.726,2.567L51.943,33.2l-3.162-4.7a1.725,1.725,0,0,0-2.864,1.925l6.026,8.964v5.7a1.726,1.726,0,0,0,3.451,0v-5.7l6.025-8.964a1.724,1.724,0,0,0-.469-2.394" transform="translate(-27.37 -27.734)" fill="#130b0b"/>
    </g>
  </g>
</svg>
