<svg xmlns="http://www.w3.org/2000/svg" width="8.812" height="9.073" viewBox="0 0 8.812 9.073">
  <g id="phone-icon" transform="translate(-137.455 -482.211)">
    <path id="Path_134310" data-name="Path 134310" d="M145.586,488.988s-.72-.466-1.028-.668a.6.6,0,0,0-.6-.037l-.9.518h0l-.1.059h0c-.15.068-.458.114-1.048-.208a5.837,5.837,0,0,1-1.013-.757c-.014-.014-.052-.058-.107-.116h0c-.056-.058-.093-.1-.109-.116a5.849,5.849,0,0,1-.7-1.052c-.288-.612-.223-.914-.15-1.061h0l.066-.1h0l.568-.869a.594.594,0,0,0,0-.6c-.184-.319-.609-1.065-.609-1.065a.55.55,0,0,0-.583-.329,1.776,1.776,0,0,0-1.138.747,1.24,1.24,0,0,0-.157.394,6.02,6.02,0,0,0,1.482,5.035l0,0v0h0l0,.007c.047.049.089.095.134.141s.075.079.114.119l.006.008h0l0,0a6.006,6.006,0,0,0,4.935,1.766,1.316,1.316,0,0,0,.4-.133,1.815,1.815,0,0,0,.811-1.095A.56.56,0,0,0,145.586,488.988Z" transform="translate(0 0)" fill="none" stroke="#130b0b" stroke-linecap="round" stroke-linejoin="round" stroke-width="0.75"/>
  </g>
</svg>
